<mxfile host="app.diagrams.net" modified="2022-01-10T04:59:07.241Z" agent="5.0 (Macintosh; Intel Mac OS X 10_15_7) AppleWebKit/605.1.15 (KHTML, like Gecko) Version/15.2 Safari/605.1.15" etag="nVoo7S8uoRTp8vDMFxt5" version="16.2.4" type="github">
  <diagram id="-oJkVD_7Ih6nB59Dtojz" name="Page-1">
    <mxGraphModel dx="4335" dy="2405" grid="1" gridSize="10" guides="1" tooltips="1" connect="1" arrows="1" fold="1" page="1" pageScale="1" pageWidth="827" pageHeight="1169" math="0" shadow="0">
      <root>
        <mxCell id="0" />
        <mxCell id="1" parent="0" />
        <mxCell id="23fjhvm1wGBGL-yQy7kA-91" style="edgeStyle=orthogonalEdgeStyle;rounded=0;orthogonalLoop=1;jettySize=auto;html=1;exitX=0.5;exitY=1;exitDx=0;exitDy=0;entryX=0.5;entryY=0;entryDx=0;entryDy=0;" edge="1" parent="1" source="23fjhvm1wGBGL-yQy7kA-95" target="23fjhvm1wGBGL-yQy7kA-98">
          <mxGeometry relative="1" as="geometry" />
        </mxCell>
        <mxCell id="23fjhvm1wGBGL-yQy7kA-92" style="edgeStyle=orthogonalEdgeStyle;rounded=0;orthogonalLoop=1;jettySize=auto;html=1;exitX=0.5;exitY=1;exitDx=0;exitDy=0;entryX=0.5;entryY=0;entryDx=0;entryDy=0;" edge="1" parent="1" source="23fjhvm1wGBGL-yQy7kA-95" target="23fjhvm1wGBGL-yQy7kA-99">
          <mxGeometry relative="1" as="geometry" />
        </mxCell>
        <mxCell id="23fjhvm1wGBGL-yQy7kA-93" style="edgeStyle=orthogonalEdgeStyle;rounded=0;orthogonalLoop=1;jettySize=auto;html=1;exitX=0.5;exitY=1;exitDx=0;exitDy=0;entryX=0.5;entryY=0;entryDx=0;entryDy=0;" edge="1" parent="1" source="23fjhvm1wGBGL-yQy7kA-95" target="23fjhvm1wGBGL-yQy7kA-100">
          <mxGeometry relative="1" as="geometry" />
        </mxCell>
        <mxCell id="23fjhvm1wGBGL-yQy7kA-94" style="edgeStyle=orthogonalEdgeStyle;rounded=0;orthogonalLoop=1;jettySize=auto;html=1;exitX=0.5;exitY=1;exitDx=0;exitDy=0;entryX=0.5;entryY=0;entryDx=0;entryDy=0;" edge="1" parent="1" source="23fjhvm1wGBGL-yQy7kA-95" target="23fjhvm1wGBGL-yQy7kA-101">
          <mxGeometry relative="1" as="geometry" />
        </mxCell>
        <mxCell id="23fjhvm1wGBGL-yQy7kA-95" value="Данные" style="rounded=0;whiteSpace=wrap;html=1;" vertex="1" parent="1">
          <mxGeometry x="380" y="40" width="120" height="60" as="geometry" />
        </mxCell>
        <mxCell id="23fjhvm1wGBGL-yQy7kA-96" style="edgeStyle=orthogonalEdgeStyle;rounded=0;orthogonalLoop=1;jettySize=auto;html=1;exitX=0.5;exitY=1;exitDx=0;exitDy=0;entryX=0.5;entryY=0;entryDx=0;entryDy=0;" edge="1" parent="1" source="23fjhvm1wGBGL-yQy7kA-98" target="23fjhvm1wGBGL-yQy7kA-106">
          <mxGeometry relative="1" as="geometry" />
        </mxCell>
        <mxCell id="23fjhvm1wGBGL-yQy7kA-97" style="edgeStyle=orthogonalEdgeStyle;rounded=0;orthogonalLoop=1;jettySize=auto;html=1;exitX=0.5;exitY=1;exitDx=0;exitDy=0;entryX=0.5;entryY=0;entryDx=0;entryDy=0;" edge="1" parent="1" source="23fjhvm1wGBGL-yQy7kA-98" target="23fjhvm1wGBGL-yQy7kA-108">
          <mxGeometry relative="1" as="geometry" />
        </mxCell>
        <mxCell id="23fjhvm1wGBGL-yQy7kA-98" value="Целочисленные" style="rounded=0;whiteSpace=wrap;html=1;" vertex="1" parent="1">
          <mxGeometry x="220" y="140" width="120" height="60" as="geometry" />
        </mxCell>
        <mxCell id="23fjhvm1wGBGL-yQy7kA-99" value="Вещественные" style="rounded=0;whiteSpace=wrap;html=1;" vertex="1" parent="1">
          <mxGeometry x="380" y="140" width="120" height="60" as="geometry" />
        </mxCell>
        <mxCell id="23fjhvm1wGBGL-yQy7kA-100" value="Символьные" style="rounded=0;whiteSpace=wrap;html=1;" vertex="1" parent="1">
          <mxGeometry x="540" y="140" width="120" height="60" as="geometry" />
        </mxCell>
        <mxCell id="23fjhvm1wGBGL-yQy7kA-101" value="Булевые" style="rounded=0;whiteSpace=wrap;html=1;" vertex="1" parent="1">
          <mxGeometry x="700" y="140" width="120" height="60" as="geometry" />
        </mxCell>
        <mxCell id="23fjhvm1wGBGL-yQy7kA-102" style="edgeStyle=orthogonalEdgeStyle;rounded=0;orthogonalLoop=1;jettySize=auto;html=1;exitX=0.5;exitY=1;exitDx=0;exitDy=0;entryX=0.5;entryY=0;entryDx=0;entryDy=0;" edge="1" parent="1" source="23fjhvm1wGBGL-yQy7kA-106" target="23fjhvm1wGBGL-yQy7kA-129">
          <mxGeometry relative="1" as="geometry" />
        </mxCell>
        <mxCell id="23fjhvm1wGBGL-yQy7kA-103" style="edgeStyle=orthogonalEdgeStyle;rounded=0;orthogonalLoop=1;jettySize=auto;html=1;exitX=0.5;exitY=1;exitDx=0;exitDy=0;entryX=0.5;entryY=0;entryDx=0;entryDy=0;" edge="1" parent="1" source="23fjhvm1wGBGL-yQy7kA-106" target="23fjhvm1wGBGL-yQy7kA-132">
          <mxGeometry relative="1" as="geometry" />
        </mxCell>
        <mxCell id="23fjhvm1wGBGL-yQy7kA-104" style="edgeStyle=orthogonalEdgeStyle;rounded=0;orthogonalLoop=1;jettySize=auto;html=1;exitX=0.5;exitY=1;exitDx=0;exitDy=0;entryX=0.5;entryY=0;entryDx=0;entryDy=0;" edge="1" parent="1" source="23fjhvm1wGBGL-yQy7kA-106" target="23fjhvm1wGBGL-yQy7kA-134">
          <mxGeometry relative="1" as="geometry" />
        </mxCell>
        <mxCell id="23fjhvm1wGBGL-yQy7kA-105" style="edgeStyle=orthogonalEdgeStyle;rounded=0;orthogonalLoop=1;jettySize=auto;html=1;exitX=0.5;exitY=1;exitDx=0;exitDy=0;" edge="1" parent="1" source="23fjhvm1wGBGL-yQy7kA-106" target="23fjhvm1wGBGL-yQy7kA-135">
          <mxGeometry relative="1" as="geometry" />
        </mxCell>
        <mxCell id="23fjhvm1wGBGL-yQy7kA-106" value="Signed" style="rounded=0;whiteSpace=wrap;html=1;" vertex="1" parent="1">
          <mxGeometry x="140" y="260" width="120" height="60" as="geometry" />
        </mxCell>
        <mxCell id="23fjhvm1wGBGL-yQy7kA-107" style="edgeStyle=orthogonalEdgeStyle;rounded=0;orthogonalLoop=1;jettySize=auto;html=1;exitX=0.5;exitY=1;exitDx=0;exitDy=0;entryX=0.5;entryY=0;entryDx=0;entryDy=0;" edge="1" parent="1" source="23fjhvm1wGBGL-yQy7kA-108" target="23fjhvm1wGBGL-yQy7kA-131">
          <mxGeometry relative="1" as="geometry" />
        </mxCell>
        <mxCell id="23fjhvm1wGBGL-yQy7kA-108" value="Unsigned" style="rounded=0;whiteSpace=wrap;html=1;" vertex="1" parent="1">
          <mxGeometry x="300" y="260" width="120" height="60" as="geometry" />
        </mxCell>
        <mxCell id="23fjhvm1wGBGL-yQy7kA-109" value="" style="shape=table;html=1;whiteSpace=wrap;startSize=0;container=1;collapsible=0;childLayout=tableLayout;" vertex="1" parent="1">
          <mxGeometry x="-600" y="160" width="240" height="40" as="geometry" />
        </mxCell>
        <mxCell id="23fjhvm1wGBGL-yQy7kA-110" value="" style="shape=tableRow;horizontal=0;startSize=0;swimlaneHead=0;swimlaneBody=0;top=0;left=0;bottom=0;right=0;collapsible=0;dropTarget=0;fillColor=none;points=[[0,0.5],[1,0.5]];portConstraint=eastwest;" vertex="1" parent="23fjhvm1wGBGL-yQy7kA-109">
          <mxGeometry width="240" height="20" as="geometry" />
        </mxCell>
        <mxCell id="23fjhvm1wGBGL-yQy7kA-111" value="&lt;span&gt;2&lt;/span&gt;&lt;sup&gt;7&lt;/sup&gt;" style="shape=partialRectangle;html=1;whiteSpace=wrap;connectable=0;fillColor=none;top=0;left=0;bottom=0;right=0;overflow=hidden;" vertex="1" parent="23fjhvm1wGBGL-yQy7kA-110">
          <mxGeometry width="30" height="20" as="geometry">
            <mxRectangle width="30" height="20" as="alternateBounds" />
          </mxGeometry>
        </mxCell>
        <mxCell id="23fjhvm1wGBGL-yQy7kA-112" value="&lt;span&gt;2&lt;/span&gt;&lt;sup&gt;6&lt;/sup&gt;" style="shape=partialRectangle;html=1;whiteSpace=wrap;connectable=0;fillColor=none;top=0;left=0;bottom=0;right=0;overflow=hidden;" vertex="1" parent="23fjhvm1wGBGL-yQy7kA-110">
          <mxGeometry x="30" width="30" height="20" as="geometry">
            <mxRectangle width="30" height="20" as="alternateBounds" />
          </mxGeometry>
        </mxCell>
        <mxCell id="23fjhvm1wGBGL-yQy7kA-113" value="&lt;span&gt;2&lt;/span&gt;&lt;sup&gt;5&lt;/sup&gt;" style="shape=partialRectangle;html=1;whiteSpace=wrap;connectable=0;fillColor=none;top=0;left=0;bottom=0;right=0;overflow=hidden;" vertex="1" parent="23fjhvm1wGBGL-yQy7kA-110">
          <mxGeometry x="60" width="30" height="20" as="geometry">
            <mxRectangle width="30" height="20" as="alternateBounds" />
          </mxGeometry>
        </mxCell>
        <mxCell id="23fjhvm1wGBGL-yQy7kA-114" value="&lt;span&gt;2&lt;/span&gt;&lt;sup&gt;4&lt;/sup&gt;" style="shape=partialRectangle;html=1;whiteSpace=wrap;connectable=0;fillColor=none;top=0;left=0;bottom=0;right=0;overflow=hidden;" vertex="1" parent="23fjhvm1wGBGL-yQy7kA-110">
          <mxGeometry x="90" width="30" height="20" as="geometry">
            <mxRectangle width="30" height="20" as="alternateBounds" />
          </mxGeometry>
        </mxCell>
        <mxCell id="23fjhvm1wGBGL-yQy7kA-115" value="&lt;span&gt;2&lt;/span&gt;&lt;sup&gt;3&lt;/sup&gt;" style="shape=partialRectangle;html=1;whiteSpace=wrap;connectable=0;fillColor=none;top=0;left=0;bottom=0;right=0;overflow=hidden;" vertex="1" parent="23fjhvm1wGBGL-yQy7kA-110">
          <mxGeometry x="120" width="30" height="20" as="geometry">
            <mxRectangle width="30" height="20" as="alternateBounds" />
          </mxGeometry>
        </mxCell>
        <mxCell id="23fjhvm1wGBGL-yQy7kA-116" value="&lt;span&gt;2&lt;/span&gt;&lt;sup&gt;2&lt;/sup&gt;" style="shape=partialRectangle;html=1;whiteSpace=wrap;connectable=0;fillColor=none;top=0;left=0;bottom=0;right=0;overflow=hidden;" vertex="1" parent="23fjhvm1wGBGL-yQy7kA-110">
          <mxGeometry x="150" width="30" height="20" as="geometry">
            <mxRectangle width="30" height="20" as="alternateBounds" />
          </mxGeometry>
        </mxCell>
        <mxCell id="23fjhvm1wGBGL-yQy7kA-117" value="&lt;span&gt;2&lt;/span&gt;&lt;sup&gt;1&lt;/sup&gt;" style="shape=partialRectangle;html=1;whiteSpace=wrap;connectable=0;fillColor=none;top=0;left=0;bottom=0;right=0;overflow=hidden;" vertex="1" parent="23fjhvm1wGBGL-yQy7kA-110">
          <mxGeometry x="180" width="30" height="20" as="geometry">
            <mxRectangle width="30" height="20" as="alternateBounds" />
          </mxGeometry>
        </mxCell>
        <mxCell id="23fjhvm1wGBGL-yQy7kA-118" value="&lt;span&gt;2&lt;/span&gt;&lt;sup&gt;0&lt;/sup&gt;" style="shape=partialRectangle;html=1;whiteSpace=wrap;connectable=0;fillColor=none;top=0;left=0;bottom=0;right=0;overflow=hidden;" vertex="1" parent="23fjhvm1wGBGL-yQy7kA-110">
          <mxGeometry x="210" width="30" height="20" as="geometry">
            <mxRectangle width="30" height="20" as="alternateBounds" />
          </mxGeometry>
        </mxCell>
        <mxCell id="23fjhvm1wGBGL-yQy7kA-119" value="" style="shape=tableRow;horizontal=0;startSize=0;swimlaneHead=0;swimlaneBody=0;top=0;left=0;bottom=0;right=0;collapsible=0;dropTarget=0;fillColor=none;points=[[0,0.5],[1,0.5]];portConstraint=eastwest;" vertex="1" parent="23fjhvm1wGBGL-yQy7kA-109">
          <mxGeometry y="20" width="240" height="20" as="geometry" />
        </mxCell>
        <mxCell id="23fjhvm1wGBGL-yQy7kA-120" value="1" style="shape=partialRectangle;html=1;whiteSpace=wrap;connectable=0;fillColor=none;top=0;left=0;bottom=0;right=0;overflow=hidden;" vertex="1" parent="23fjhvm1wGBGL-yQy7kA-119">
          <mxGeometry width="30" height="20" as="geometry">
            <mxRectangle width="30" height="20" as="alternateBounds" />
          </mxGeometry>
        </mxCell>
        <mxCell id="23fjhvm1wGBGL-yQy7kA-121" value="1" style="shape=partialRectangle;html=1;whiteSpace=wrap;connectable=0;fillColor=none;top=0;left=0;bottom=0;right=0;overflow=hidden;" vertex="1" parent="23fjhvm1wGBGL-yQy7kA-119">
          <mxGeometry x="30" width="30" height="20" as="geometry">
            <mxRectangle width="30" height="20" as="alternateBounds" />
          </mxGeometry>
        </mxCell>
        <mxCell id="23fjhvm1wGBGL-yQy7kA-122" value="0" style="shape=partialRectangle;html=1;whiteSpace=wrap;connectable=0;fillColor=none;top=0;left=0;bottom=0;right=0;overflow=hidden;" vertex="1" parent="23fjhvm1wGBGL-yQy7kA-119">
          <mxGeometry x="60" width="30" height="20" as="geometry">
            <mxRectangle width="30" height="20" as="alternateBounds" />
          </mxGeometry>
        </mxCell>
        <mxCell id="23fjhvm1wGBGL-yQy7kA-123" value="1" style="shape=partialRectangle;html=1;whiteSpace=wrap;connectable=0;fillColor=none;top=0;left=0;bottom=0;right=0;overflow=hidden;" vertex="1" parent="23fjhvm1wGBGL-yQy7kA-119">
          <mxGeometry x="90" width="30" height="20" as="geometry">
            <mxRectangle width="30" height="20" as="alternateBounds" />
          </mxGeometry>
        </mxCell>
        <mxCell id="23fjhvm1wGBGL-yQy7kA-124" value="0" style="shape=partialRectangle;html=1;whiteSpace=wrap;connectable=0;fillColor=none;top=0;left=0;bottom=0;right=0;overflow=hidden;" vertex="1" parent="23fjhvm1wGBGL-yQy7kA-119">
          <mxGeometry x="120" width="30" height="20" as="geometry">
            <mxRectangle width="30" height="20" as="alternateBounds" />
          </mxGeometry>
        </mxCell>
        <mxCell id="23fjhvm1wGBGL-yQy7kA-125" value="1" style="shape=partialRectangle;html=1;whiteSpace=wrap;connectable=0;fillColor=none;top=0;left=0;bottom=0;right=0;overflow=hidden;" vertex="1" parent="23fjhvm1wGBGL-yQy7kA-119">
          <mxGeometry x="150" width="30" height="20" as="geometry">
            <mxRectangle width="30" height="20" as="alternateBounds" />
          </mxGeometry>
        </mxCell>
        <mxCell id="23fjhvm1wGBGL-yQy7kA-126" value="1" style="shape=partialRectangle;html=1;whiteSpace=wrap;connectable=0;fillColor=none;top=0;left=0;bottom=0;right=0;overflow=hidden;" vertex="1" parent="23fjhvm1wGBGL-yQy7kA-119">
          <mxGeometry x="180" width="30" height="20" as="geometry">
            <mxRectangle width="30" height="20" as="alternateBounds" />
          </mxGeometry>
        </mxCell>
        <mxCell id="23fjhvm1wGBGL-yQy7kA-127" value="1" style="shape=partialRectangle;html=1;whiteSpace=wrap;connectable=0;fillColor=none;top=0;left=0;bottom=0;right=0;overflow=hidden;" vertex="1" parent="23fjhvm1wGBGL-yQy7kA-119">
          <mxGeometry x="210" width="30" height="20" as="geometry">
            <mxRectangle width="30" height="20" as="alternateBounds" />
          </mxGeometry>
        </mxCell>
        <mxCell id="23fjhvm1wGBGL-yQy7kA-128" value="&lt;table border=&quot;1&quot; style=&quot;border: 1px solid rgb(0 , 0 , 0) ; border-collapse: collapse&quot; align=&quot;center&quot;&gt;&lt;tbody&gt;&lt;tr&gt;&lt;td&gt;&amp;nbsp;2&lt;sup&gt;7&lt;/sup&gt;&amp;nbsp;&lt;br&gt;&lt;/td&gt;&lt;td&gt;&amp;nbsp;2&lt;sup&gt;6&lt;/sup&gt;&amp;nbsp;&lt;br&gt;&lt;/td&gt;&lt;td&gt;&amp;nbsp;2&lt;sup&gt;5&lt;/sup&gt;&amp;nbsp;&lt;br&gt;&lt;/td&gt;&lt;td&gt;&amp;nbsp;2&lt;sup&gt;4&lt;/sup&gt;&amp;nbsp;&lt;br&gt;&lt;/td&gt;&lt;td&gt;&amp;nbsp;2&lt;sup&gt;3&lt;/sup&gt;&amp;nbsp;&lt;br&gt;&lt;/td&gt;&lt;td&gt;&amp;nbsp;2&lt;sup&gt;2&lt;/sup&gt;&amp;nbsp;&lt;br&gt;&lt;/td&gt;&lt;td&gt;&amp;nbsp;2&lt;sup&gt;1&lt;/sup&gt;&amp;nbsp;&lt;br&gt;&lt;/td&gt;&lt;td&gt;&amp;nbsp;2&lt;sup&gt;0&lt;/sup&gt;&amp;nbsp;&lt;br&gt;&lt;/td&gt;&lt;/tr&gt;&lt;tr&gt;&lt;td&gt;1&lt;/td&gt;&lt;td&gt;1&lt;/td&gt;&lt;td&gt;0&lt;/td&gt;&lt;td&gt;1&lt;/td&gt;&lt;td&gt;0&lt;/td&gt;&lt;td&gt;1&lt;/td&gt;&lt;td&gt;1&lt;/td&gt;&lt;td&gt;1&lt;/td&gt;&lt;/tr&gt;&lt;/tbody&gt;&lt;/table&gt;" style="whiteSpace=wrap;html=1;" vertex="1" parent="1">
          <mxGeometry x="-900" y="-180" width="370" height="320" as="geometry" />
        </mxCell>
        <mxCell id="23fjhvm1wGBGL-yQy7kA-129" value="Прямой код. Signed magnitude representation.&lt;br&gt;&lt;br&gt;В старший бит(знаковый разряд) записывается знак - 0(+), 1(-), в остальные биты (цифровые разряды) записывается модуль числа.&lt;br&gt;&lt;img src=&quot;https://neerc.ifmo.ru/wiki/images/3/3c/Представление_двоичных_чисел_в_прямом_коде.jpg&quot; width=&quot;271&quot; height=&quot;295&quot;&gt;&lt;br&gt;&lt;table border=&quot;1&quot; style=&quot;border: 1px solid rgb(0 , 0 , 0) ; border-collapse: collapse&quot; align=&quot;center&quot;&gt;&lt;tbody&gt;&lt;tr&gt;&lt;td&gt;&amp;nbsp;2&lt;sup&gt;7&lt;/sup&gt;&amp;nbsp;&lt;br&gt;&lt;/td&gt;&lt;td&gt;&amp;nbsp;2&lt;sup&gt;6&lt;/sup&gt;&amp;nbsp;&lt;br&gt;&lt;/td&gt;&lt;td&gt;&amp;nbsp;2&lt;sup&gt;5&lt;/sup&gt;&amp;nbsp;&lt;br&gt;&lt;/td&gt;&lt;td&gt;&amp;nbsp;2&lt;sup&gt;4&lt;/sup&gt;&amp;nbsp;&lt;br&gt;&lt;/td&gt;&lt;td&gt;&amp;nbsp;2&lt;sup&gt;3&lt;/sup&gt;&amp;nbsp;&lt;br&gt;&lt;/td&gt;&lt;td&gt;&amp;nbsp;2&lt;sup&gt;2&lt;/sup&gt;&amp;nbsp;&lt;br&gt;&lt;/td&gt;&lt;td&gt;&amp;nbsp;2&lt;sup&gt;1&lt;/sup&gt;&amp;nbsp;&lt;br&gt;&lt;/td&gt;&lt;td&gt;&amp;nbsp;2&lt;sup&gt;0&lt;/sup&gt;&amp;nbsp;&lt;br&gt;&lt;/td&gt;&lt;/tr&gt;&lt;tr&gt;&lt;td&gt;1&lt;/td&gt;&lt;td&gt;1&lt;/td&gt;&lt;td&gt;0&lt;/td&gt;&lt;td&gt;1&lt;/td&gt;&lt;td&gt;0&lt;/td&gt;&lt;td&gt;1&lt;/td&gt;&lt;td&gt;1&lt;/td&gt;&lt;td&gt;1&lt;/td&gt;&lt;/tr&gt;&lt;/tbody&gt;&lt;/table&gt;&lt;br&gt;(-)&lt;sup&gt;&amp;nbsp;&lt;/sup&gt;+ 1*2&lt;sup&gt;6&amp;nbsp;&lt;/sup&gt;+ 0*2&lt;sup&gt;5&amp;nbsp;&lt;/sup&gt;+ 1*2&lt;sup&gt;4&amp;nbsp;&lt;/sup&gt;+ 0*2&lt;sup&gt;3&amp;nbsp;&lt;/sup&gt;+ 1*2&lt;sup&gt;2&amp;nbsp;&lt;/sup&gt;+ 1*2&lt;sup&gt;1&amp;nbsp;&lt;/sup&gt;+ 1*2&lt;sup&gt;0&lt;/sup&gt;&amp;nbsp;= -87&lt;sub&gt;10&lt;/sub&gt;&lt;br&gt;Диапазон значений: от -2&lt;sup&gt;n-1&lt;/sup&gt;&amp;nbsp;+ 1 до&amp;nbsp;2&lt;sup&gt;n-1&lt;/sup&gt;&amp;nbsp;- 1, где n - количество бит.&lt;br&gt;&lt;br&gt;&lt;blockquote style=&quot;margin: 0px 0px 0px 40px ; border: none ; padding: 0px&quot;&gt;&lt;div style=&quot;text-align: left&quot;&gt;Проблемы:&lt;/div&gt;&lt;/blockquote&gt;&lt;div style=&quot;text-align: left&quot;&gt;&lt;ul&gt;&lt;li&gt;существуют два нуля(положительный и отрицательный), из-за чего усложняется арифметическое сравнение;&lt;/li&gt;&lt;li&gt;выполнение арифметических операций с отрицательными числами требует усложнение архитектуры центрального процессора.&lt;/li&gt;&lt;/ul&gt;&lt;/div&gt;" style="whiteSpace=wrap;html=1;" vertex="1" parent="1">
          <mxGeometry x="-260" y="380" width="400" height="600" as="geometry" />
        </mxCell>
        <mxCell id="23fjhvm1wGBGL-yQy7kA-130" style="edgeStyle=orthogonalEdgeStyle;rounded=0;orthogonalLoop=1;jettySize=auto;html=1;exitX=0.5;exitY=1;exitDx=0;exitDy=0;entryX=0.5;entryY=0;entryDx=0;entryDy=0;" edge="1" parent="1" source="23fjhvm1wGBGL-yQy7kA-131" target="23fjhvm1wGBGL-yQy7kA-133">
          <mxGeometry relative="1" as="geometry" />
        </mxCell>
        <mxCell id="23fjhvm1wGBGL-yQy7kA-131" value="Все просто, позиция бита отображает степень двойки.&lt;br&gt;&lt;br&gt;&lt;table border=&quot;1&quot; style=&quot;border: 1px solid rgb(0 , 0 , 0) ; border-collapse: collapse&quot; align=&quot;center&quot;&gt;&lt;tbody&gt;&lt;tr&gt;&lt;td&gt;&amp;nbsp;2&lt;sup&gt;7&lt;/sup&gt;&amp;nbsp;&lt;br&gt;&lt;/td&gt;&lt;td&gt;&amp;nbsp;2&lt;sup&gt;6&lt;/sup&gt;&amp;nbsp;&lt;br&gt;&lt;/td&gt;&lt;td&gt;&amp;nbsp;2&lt;sup&gt;5&lt;/sup&gt;&amp;nbsp;&lt;br&gt;&lt;/td&gt;&lt;td&gt;&amp;nbsp;2&lt;sup&gt;4&lt;/sup&gt;&amp;nbsp;&lt;br&gt;&lt;/td&gt;&lt;td&gt;&amp;nbsp;2&lt;sup&gt;3&lt;/sup&gt;&amp;nbsp;&lt;br&gt;&lt;/td&gt;&lt;td&gt;&amp;nbsp;2&lt;sup&gt;2&lt;/sup&gt;&amp;nbsp;&lt;br&gt;&lt;/td&gt;&lt;td&gt;&amp;nbsp;2&lt;sup&gt;1&lt;/sup&gt;&amp;nbsp;&lt;br&gt;&lt;/td&gt;&lt;td&gt;&amp;nbsp;2&lt;sup&gt;0&lt;/sup&gt;&amp;nbsp;&lt;br&gt;&lt;/td&gt;&lt;/tr&gt;&lt;tr&gt;&lt;td&gt;1&lt;/td&gt;&lt;td&gt;1&lt;/td&gt;&lt;td&gt;0&lt;/td&gt;&lt;td&gt;1&lt;/td&gt;&lt;td&gt;0&lt;/td&gt;&lt;td&gt;1&lt;/td&gt;&lt;td&gt;1&lt;/td&gt;&lt;td&gt;1&lt;/td&gt;&lt;/tr&gt;&lt;/tbody&gt;&lt;/table&gt;&lt;br&gt;1*2&lt;sup&gt;7&amp;nbsp;&lt;/sup&gt;+ 1*2&lt;sup&gt;6&amp;nbsp;&lt;/sup&gt;+ 0*2&lt;sup&gt;5&amp;nbsp;&lt;/sup&gt;+ 1*2&lt;sup&gt;4&amp;nbsp;&lt;/sup&gt;+ 0*2&lt;sup&gt;3&amp;nbsp;&lt;/sup&gt;+ 1*2&lt;sup&gt;2&amp;nbsp;&lt;/sup&gt;+ 1*2&lt;sup&gt;1&amp;nbsp;&lt;/sup&gt;+ 1*2&lt;sup&gt;0&lt;/sup&gt;&amp;nbsp;= 215&lt;sub&gt;10&lt;/sub&gt;&lt;br&gt;Диапазон значений: от 0 до 2&lt;sup&gt;n&lt;/sup&gt;&amp;nbsp;- 1, где n - количество бит." style="whiteSpace=wrap;html=1;" vertex="1" parent="1">
          <mxGeometry x="180" y="380" width="360" height="160" as="geometry" />
        </mxCell>
        <mxCell id="23fjhvm1wGBGL-yQy7kA-132" value="Код со сдвигом. Offset binary.&lt;br&gt;&lt;br&gt;Целочисленный отрезок от 0 до 2&lt;sup&gt;n&lt;/sup&gt;, где n - количество бит, сдвигается влево на 2&lt;sup&gt;n-1&lt;/sup&gt;, а затем получившиеся на этом отрезке числа кодируются по возрастанию кодами от 00...0 до 11..1.&lt;br&gt;&lt;img src=&quot;https://neerc.ifmo.ru/wiki/images/4/46/Представление_двоичных_чисел_в_коде_со_сдвигом.jpg&quot; width=&quot;301&quot; height=&quot;376&quot;&gt;&lt;br&gt;&lt;table border=&quot;1&quot; style=&quot;border: 1px solid rgb(0 , 0 , 0) ; border-collapse: collapse&quot; align=&quot;center&quot;&gt;&lt;tbody&gt;&lt;tr&gt;&lt;td&gt;&amp;nbsp;2&lt;sup&gt;7&lt;/sup&gt;&amp;nbsp;&lt;br&gt;&lt;/td&gt;&lt;td&gt;&amp;nbsp;2&lt;sup&gt;6&lt;/sup&gt;&amp;nbsp;&lt;br&gt;&lt;/td&gt;&lt;td&gt;&amp;nbsp;2&lt;sup&gt;5&lt;/sup&gt;&amp;nbsp;&lt;br&gt;&lt;/td&gt;&lt;td&gt;&amp;nbsp;2&lt;sup&gt;4&lt;/sup&gt;&amp;nbsp;&lt;br&gt;&lt;/td&gt;&lt;td&gt;&amp;nbsp;2&lt;sup&gt;3&lt;/sup&gt;&amp;nbsp;&lt;br&gt;&lt;/td&gt;&lt;td&gt;&amp;nbsp;2&lt;sup&gt;2&lt;/sup&gt;&amp;nbsp;&lt;br&gt;&lt;/td&gt;&lt;td&gt;&amp;nbsp;2&lt;sup&gt;1&lt;/sup&gt;&amp;nbsp;&lt;br&gt;&lt;/td&gt;&lt;td&gt;&amp;nbsp;2&lt;sup&gt;0&lt;/sup&gt;&amp;nbsp;&lt;br&gt;&lt;/td&gt;&lt;/tr&gt;&lt;tr&gt;&lt;td&gt;1&lt;/td&gt;&lt;td&gt;1&lt;/td&gt;&lt;td&gt;0&lt;/td&gt;&lt;td&gt;1&lt;/td&gt;&lt;td&gt;0&lt;/td&gt;&lt;td&gt;1&lt;/td&gt;&lt;td&gt;1&lt;/td&gt;&lt;td&gt;1&lt;br&gt;&lt;/td&gt;&lt;/tr&gt;&lt;/tbody&gt;&lt;/table&gt;&lt;br&gt;1*2&lt;sup&gt;7&amp;nbsp;&lt;/sup&gt;+ 1*2&lt;sup&gt;6&amp;nbsp;&lt;/sup&gt;+ 0*2&lt;sup&gt;5&amp;nbsp;&lt;/sup&gt;+ 1*2&lt;sup&gt;4&amp;nbsp;&lt;/sup&gt;+ 0*2&lt;sup&gt;3&amp;nbsp;&lt;/sup&gt;+ 1*2&lt;sup&gt;2&amp;nbsp;&lt;/sup&gt;+ 1*2&lt;sup&gt;1&amp;nbsp;&lt;/sup&gt;+ 1*2&lt;sup&gt;0&lt;/sup&gt;&amp;nbsp;= 215&lt;sup&gt;&amp;nbsp;&lt;/sup&gt;- 256 = -41&lt;sub&gt;10&lt;/sub&gt;&lt;br&gt;Диапазон значений: от -2&lt;sup&gt;n-1&lt;/sup&gt;&amp;nbsp;до&amp;nbsp;2&lt;sup&gt;n-1&lt;/sup&gt;&amp;nbsp;- 1, где n - количество бит.&lt;br&gt;&lt;br&gt;&lt;blockquote style=&quot;margin: 0 0 0 40px ; border: none ; padding: 0px&quot;&gt;&lt;div style=&quot;text-align: left&quot;&gt;Проблемы:&lt;/div&gt;&lt;/blockquote&gt;&lt;span style=&quot;text-align: left&quot;&gt;&lt;ul&gt;&lt;li&gt;несимметричные положительная и отрицательная части;&lt;/li&gt;&lt;li&gt;при арифметических операциях нужно учитывать смещение, то есть проделывать на одно действие больше.&lt;/li&gt;&lt;/ul&gt;&lt;i&gt;Применяется для хранения порядка вещественного числа.&lt;/i&gt;&lt;br&gt;&lt;/span&gt;" style="whiteSpace=wrap;html=1;" vertex="1" parent="1">
          <mxGeometry x="-700" y="380" width="400" height="680" as="geometry" />
        </mxCell>
        <mxCell id="23fjhvm1wGBGL-yQy7kA-133" value="&lt;span&gt;Переполнение. При прибавлении хотя бы единицы к максимальному числу происходит переполнение, в результате которого старший бит отбрасывается, а остальные сохраняются.&lt;/span&gt;&lt;br&gt;&lt;br&gt;&lt;table border=&quot;1&quot; align=&quot;center&quot; style=&quot;border: 1px solid rgb(0 , 0 , 0) ; border-collapse: collapse&quot;&gt;&lt;tbody&gt;&lt;tr&gt;&lt;td&gt;&lt;br&gt;&lt;/td&gt;&lt;td&gt;&amp;nbsp;1&lt;/td&gt;&lt;td&gt;&amp;nbsp;1&lt;/td&gt;&lt;td&gt;&amp;nbsp;1&lt;/td&gt;&lt;td&gt;&amp;nbsp;1&lt;/td&gt;&lt;td&gt;&amp;nbsp;1&lt;/td&gt;&lt;td&gt;&amp;nbsp;1&lt;/td&gt;&lt;td&gt;&amp;nbsp;1&lt;/td&gt;&lt;td&gt;&amp;nbsp;1&lt;/td&gt;&lt;/tr&gt;&lt;tr&gt;&lt;td&gt;&lt;br&gt;&lt;/td&gt;&lt;td&gt;&amp;nbsp;0&lt;/td&gt;&lt;td&gt;&amp;nbsp;0&lt;/td&gt;&lt;td&gt;&amp;nbsp;0&lt;/td&gt;&lt;td&gt;&amp;nbsp;0&lt;/td&gt;&lt;td&gt;&amp;nbsp;0&lt;/td&gt;&lt;td&gt;&amp;nbsp;0&lt;/td&gt;&lt;td&gt;&amp;nbsp;0&lt;/td&gt;&lt;td&gt;&amp;nbsp;1&lt;/td&gt;&lt;/tr&gt;&lt;tr&gt;&lt;td style=&quot;background-color: rgb(255 , 0 , 0)&quot;&gt;&amp;nbsp;1&lt;/td&gt;&lt;td&gt;&amp;nbsp;0&lt;/td&gt;&lt;td&gt;&amp;nbsp;0&lt;/td&gt;&lt;td&gt;&amp;nbsp;0&lt;/td&gt;&lt;td&gt;&amp;nbsp;0&lt;/td&gt;&lt;td&gt;&amp;nbsp;0&lt;/td&gt;&lt;td&gt;&amp;nbsp;0&lt;/td&gt;&lt;td&gt;&amp;nbsp;0&lt;/td&gt;&lt;td&gt;&amp;nbsp;0&lt;/td&gt;&lt;/tr&gt;&lt;/tbody&gt;&lt;/table&gt;" style="whiteSpace=wrap;html=1;dashed=1;" vertex="1" parent="1">
          <mxGeometry x="180" y="580" width="360" height="160" as="geometry" />
        </mxCell>
        <mxCell id="23fjhvm1wGBGL-yQy7kA-134" value="Дополнительный код. Дополнение до единицы. One&#39;s complement.&lt;br&gt;&lt;br&gt;Если число положительное, то в старший бит(знаковый разряд) записывается 0(+), в остальные биты(цифровые разряды) записывается модуль числа.&lt;br&gt;Если число отрицательное, то записывается инвертированное представление модуля числа(обратный код).&lt;br&gt;Если число является нулем, то его можно представить двумя способами: 00..0 и 11.1.&lt;br&gt;&lt;img src=&quot;https://neerc.ifmo.ru/wiki/images/8/86/Представление_чисел_дополнением_до_единицы.jpg&quot; width=&quot;230&quot; height=&quot;297&quot;&gt;&lt;br&gt;&lt;table border=&quot;1&quot; style=&quot;border: 1px solid rgb(0 , 0 , 0) ; border-collapse: collapse&quot; align=&quot;center&quot;&gt;&lt;tbody&gt;&lt;tr&gt;&lt;td&gt;&amp;nbsp;2&lt;sup&gt;7&lt;/sup&gt;&amp;nbsp;&lt;br&gt;&lt;/td&gt;&lt;td&gt;&amp;nbsp;2&lt;sup&gt;6&lt;/sup&gt;&amp;nbsp;&lt;br&gt;&lt;/td&gt;&lt;td&gt;&amp;nbsp;2&lt;sup&gt;5&lt;/sup&gt;&amp;nbsp;&lt;br&gt;&lt;/td&gt;&lt;td&gt;&amp;nbsp;2&lt;sup&gt;4&lt;/sup&gt;&amp;nbsp;&lt;br&gt;&lt;/td&gt;&lt;td&gt;&amp;nbsp;2&lt;sup&gt;3&lt;/sup&gt;&amp;nbsp;&lt;br&gt;&lt;/td&gt;&lt;td&gt;&amp;nbsp;2&lt;sup&gt;2&lt;/sup&gt;&amp;nbsp;&lt;br&gt;&lt;/td&gt;&lt;td&gt;&amp;nbsp;2&lt;sup&gt;1&lt;/sup&gt;&amp;nbsp;&lt;br&gt;&lt;/td&gt;&lt;td&gt;&amp;nbsp;2&lt;sup&gt;0&lt;/sup&gt;&amp;nbsp;&lt;br&gt;&lt;/td&gt;&lt;/tr&gt;&lt;tr&gt;&lt;td&gt;1&lt;/td&gt;&lt;td&gt;1&lt;/td&gt;&lt;td&gt;0&lt;/td&gt;&lt;td&gt;1&lt;/td&gt;&lt;td&gt;0&lt;/td&gt;&lt;td&gt;1&lt;/td&gt;&lt;td&gt;1&lt;/td&gt;&lt;td&gt;1&lt;/td&gt;&lt;/tr&gt;&lt;tr&gt;&lt;td&gt;0&lt;/td&gt;&lt;td&gt;0&lt;/td&gt;&lt;td&gt;1&lt;/td&gt;&lt;td&gt;0&lt;/td&gt;&lt;td&gt;1&lt;/td&gt;&lt;td&gt;0&lt;/td&gt;&lt;td&gt;0&lt;/td&gt;&lt;td&gt;0&lt;/td&gt;&lt;/tr&gt;&lt;/tbody&gt;&lt;/table&gt;&lt;br&gt;0*2&lt;sup&gt;7&amp;nbsp;&lt;/sup&gt;+ 0*2&lt;sup&gt;6&amp;nbsp;&lt;/sup&gt;+ 1*2&lt;sup&gt;5&amp;nbsp;&lt;/sup&gt;+ 0*2&lt;sup&gt;4&amp;nbsp;&lt;/sup&gt;+ 1*2&lt;sup&gt;3&amp;nbsp;&lt;/sup&gt;+ 0*2&lt;sup&gt;2&amp;nbsp;&lt;/sup&gt;+ 0*2&lt;sup&gt;1&amp;nbsp;&lt;/sup&gt;+ 0*2&lt;sup&gt;0&lt;/sup&gt;&amp;nbsp;= 40&lt;sub&gt;10&lt;/sub&gt;&lt;br&gt;Диапазон значений: от -2&lt;sup&gt;n-1&amp;nbsp;&lt;/sup&gt;+ 1&amp;nbsp;до&amp;nbsp;2&lt;sup&gt;n-1&lt;/sup&gt;&amp;nbsp;- 1, где n - количество бит.&lt;br&gt;&lt;br&gt;&lt;blockquote style=&quot;margin: 0 0 0 40px ; border: none ; padding: 0px&quot;&gt;&lt;div style=&quot;text-align: left&quot;&gt;&lt;div style=&quot;text-align: left&quot;&gt;Проблемы:&lt;/div&gt;&lt;/div&gt;&lt;/blockquote&gt;&lt;span style=&quot;text-align: left&quot;&gt;&lt;ul&gt;&lt;li&gt;выполнение арифметических операций с отрицательными числами требует усложнение архитектуры центрального процессора;&lt;br&gt;&lt;/li&gt;&lt;li&gt;существуют два нуля(положительный и отрицательный), из-за чего усложняется арифметическое сравнение.&lt;/li&gt;&lt;/ul&gt;&lt;/span&gt;" style="whiteSpace=wrap;html=1;" vertex="1" parent="1">
          <mxGeometry x="-1260" y="380" width="520" height="640" as="geometry" />
        </mxCell>
        <mxCell id="23fjhvm1wGBGL-yQy7kA-135" value="Дополнительный код. Дополнение до двух. Two&#39;s complement.&lt;br&gt;&lt;br&gt;Если число неотрицательное(все положительные + ноль), то в старший разряд записывается ноль, в остальные разряды модуль числа.&lt;br&gt;Если число отрицательное, то модуль числа инвертируется, к нему прибавляется единица и в старший бит записывается единица.&lt;br&gt;&lt;img src=&quot;https://neerc.ifmo.ru/wiki/images/d/dd/Представление_двоичных_чисел_в_дополнительном_коде.jpg&quot; width=&quot;291&quot; height=&quot;376&quot;&gt;&lt;br&gt;&lt;table border=&quot;1&quot; style=&quot;border: 1px solid rgb(0 , 0 , 0) ; border-collapse: collapse&quot; align=&quot;center&quot;&gt;&lt;tbody&gt;&lt;tr&gt;&lt;td&gt;&amp;nbsp;2&lt;sup&gt;7&lt;/sup&gt;&amp;nbsp;&lt;br&gt;&lt;/td&gt;&lt;td&gt;&amp;nbsp;2&lt;sup&gt;6&lt;/sup&gt;&amp;nbsp;&lt;br&gt;&lt;/td&gt;&lt;td&gt;&amp;nbsp;2&lt;sup&gt;5&lt;/sup&gt;&amp;nbsp;&lt;br&gt;&lt;/td&gt;&lt;td&gt;&amp;nbsp;2&lt;sup&gt;4&lt;/sup&gt;&amp;nbsp;&lt;br&gt;&lt;/td&gt;&lt;td&gt;&amp;nbsp;2&lt;sup&gt;3&lt;/sup&gt;&amp;nbsp;&lt;br&gt;&lt;/td&gt;&lt;td&gt;&amp;nbsp;2&lt;sup&gt;2&lt;/sup&gt;&amp;nbsp;&lt;br&gt;&lt;/td&gt;&lt;td&gt;&amp;nbsp;2&lt;sup&gt;1&lt;/sup&gt;&amp;nbsp;&lt;br&gt;&lt;/td&gt;&lt;td&gt;&amp;nbsp;2&lt;sup&gt;0&lt;/sup&gt;&amp;nbsp;&lt;br&gt;&lt;/td&gt;&lt;/tr&gt;&lt;tr&gt;&lt;td&gt;1&lt;/td&gt;&lt;td&gt;1&lt;/td&gt;&lt;td&gt;0&lt;/td&gt;&lt;td&gt;1&lt;/td&gt;&lt;td&gt;0&lt;/td&gt;&lt;td&gt;1&lt;/td&gt;&lt;td&gt;1&lt;/td&gt;&lt;td&gt;1&lt;/td&gt;&lt;/tr&gt;&lt;tr&gt;&lt;td&gt;0&lt;/td&gt;&lt;td&gt;0&lt;/td&gt;&lt;td&gt;1&lt;/td&gt;&lt;td&gt;0&lt;/td&gt;&lt;td&gt;1&lt;/td&gt;&lt;td&gt;0&lt;/td&gt;&lt;td&gt;0&lt;/td&gt;&lt;td&gt;0&lt;/td&gt;&lt;/tr&gt;&lt;tr&gt;&lt;td&gt;0&lt;/td&gt;&lt;td&gt;0&lt;/td&gt;&lt;td&gt;1&lt;/td&gt;&lt;td&gt;0&lt;/td&gt;&lt;td&gt;1&lt;/td&gt;&lt;td&gt;0&lt;/td&gt;&lt;td&gt;0&lt;/td&gt;&lt;td&gt;1&lt;/td&gt;&lt;/tr&gt;&lt;/tbody&gt;&lt;/table&gt;&lt;br&gt;0*2&lt;sup&gt;7&amp;nbsp;&lt;/sup&gt;+ 0*2&lt;sup&gt;6&amp;nbsp;&lt;/sup&gt;+ 1*2&lt;sup&gt;5&amp;nbsp;&lt;/sup&gt;+ 0*2&lt;sup&gt;4&amp;nbsp;&lt;/sup&gt;+ 1*2&lt;sup&gt;3&amp;nbsp;&lt;/sup&gt;+ 0*2&lt;sup&gt;2&amp;nbsp;&lt;/sup&gt;+ 0*2&lt;sup&gt;1&amp;nbsp;&lt;/sup&gt;+ 1*2&lt;sup&gt;0&lt;/sup&gt;&amp;nbsp;= 41&lt;sub&gt;10&lt;/sub&gt;&lt;br&gt;Диапазон значений: от -2&lt;sup&gt;n-1&lt;/sup&gt;&amp;nbsp;до&amp;nbsp;2&lt;sup&gt;n-1&lt;/sup&gt;&amp;nbsp;- 1, где n - количество бит.&lt;br&gt;&lt;br&gt;&lt;blockquote style=&quot;margin: 0px 0px 0px 40px ; border: none ; padding: 0px&quot;&gt;&lt;div style=&quot;text-align: left&quot;&gt;Проблемы:&lt;/div&gt;&lt;/blockquote&gt;&lt;span style=&quot;text-align: left&quot;&gt;&lt;ul&gt;&lt;li&gt;несимметричные положительная и отрицательная части;&lt;/li&gt;&lt;li&gt;в отличие от сложения, числа в дополнительном коде нельзя сравнивать как беззнаковые, или вычитать без расширения разрядности.&lt;/li&gt;&lt;/ul&gt;&lt;i&gt;В современных вычислительных системах используется чаще всего.&lt;/i&gt;&lt;br&gt;&lt;/span&gt;" style="whiteSpace=wrap;html=1;" vertex="1" parent="1">
          <mxGeometry x="-1740" y="380" width="440" height="760" as="geometry" />
        </mxCell>
      </root>
    </mxGraphModel>
  </diagram>
</mxfile>
